<?xml version="1.0" encoding="UTF-8" standalone="no"?>
<!-- Created with Inkscape (http://www.inkscape.org/) -->

<svg
   width="50"
   height="50"
   viewBox="0 0 13.229167 13.229167"
   version="1.1"
   id="svg5"
   xmlns="http://www.w3.org/2000/svg"
   xmlns:svg="http://www.w3.org/2000/svg">
  <defs
     id="defs2" />
  <g
     id="layer1">
    <g
       aria-label="1"
       id="text1287"
       style="font-size:15.7088px;line-height:1.25;stroke-width:0.39272;fill:#0000ff;fill-opacity:1">
      <path
         d="M 7.4628585,1.7684189 4.0540489,2.6009853 C 3.3942792,2.7580733 3.174356,2.9779965 3.174356,3.4335517 c 0,0.471264 0.3455936,0.8482752 0.78544,0.8482752 0.1570881,0 0.2042145,-0.015709 0.5183905,-0.094253 L 5.7663081,3.8576893 V 9.8427422 H 4.2425545 c -0.4084289,0 -0.5340993,0.015709 -0.6911873,0.1099616 -0.2513408,0.1570882 -0.4084288,0.4241372 -0.4084288,0.6911872 0,0.251341 0.1413792,0.51839 0.3455936,0.65977 0.157088,0.109961 0.39272,0.157088 0.7540225,0.157088 h 4.7440576 c 0.7226049,0 1.0996159,-0.282759 1.0996159,-0.816858 0,-0.251341 -0.1256702,-0.486973 -0.3455934,-0.6440608 C 9.5678378,9.8741598 9.4107498,9.8427422 8.9866121,9.8427422 H 7.4628585 Z"
         style="font-weight:bold;font-family:'Nimbus Mono PS';-inkscape-font-specification:'Nimbus Mono PS, Bold';fill:#0000ff;fill-opacity:1"
         id="path265" />
    </g>
  </g>
</svg>
