<?xml version="1.0" encoding="UTF-8" standalone="no"?>
<!-- Created with Inkscape (http://www.inkscape.org/) -->

<svg
   width="50"
   height="50"
   viewBox="0 0 13.229167 13.229167"
   version="1.1"
   id="svg5"
   xmlns="http://www.w3.org/2000/svg"
   xmlns:svg="http://www.w3.org/2000/svg">
  <defs
     id="defs2" />
  <g
     id="layer1">
    <g
       aria-label="2"
       id="text1287"
       style="font-size:15.7088px;line-height:1.25;stroke-width:0.39272;fill:#007b00;fill-opacity:1">
      <path
         d="M 5.3264617,9.8270334 C 9.4107498,6.5438942 9.866305,6.0255038 9.866305,4.7216733 c 0,-1.6808416 -1.4609185,-2.9532544 -3.4088097,-2.9532544 -0.9582368,0 -1.8379296,0.314176 -2.4819905,0.863984 -0.549808,0.471264 -0.9739456,1.2095776 -0.9739456,1.7122592 0,0.4241376 0.39272,0.78544 0.8482752,0.78544 0.3613025,0 0.6754785,-0.1885056 0.7697313,-0.471264 C 4.7923625,4.1718653 4.8080713,4.1404477 4.9494505,3.9833597 5.2950441,3.6063485 5.8134345,3.3864253 6.4260777,3.3864253 c 0.9896544,0 1.7436768,0.549808 1.7436768,1.2881216 0,0.4869728 -0.2513408,0.7854401 -1.8222208,2.1521057 C 5.7034729,7.3921694 4.6038569,8.287571 2.781636,9.701363 l -0.094253,0.078544 v 1.680842 H 9.944849 v -1.382375 c 0,-0.377011 -0.031418,-0.5183902 -0.1256704,-0.6754782 C 9.6620906,9.1672638 9.395041,9.0258846 9.0965738,9.0258846 c -0.5026817,0 -0.7697313,0.2513408 -0.8325665,0.8011488 z"
         style="font-weight:bold;font-family:'Nimbus Mono PS';-inkscape-font-specification:'Nimbus Mono PS, Bold';fill:#007b00;fill-opacity:1"
         id="path3785" />
    </g>
  </g>
</svg>
