<?xml version="1.0" encoding="UTF-8" standalone="no"?>
<!-- Created with Inkscape (http://www.inkscape.org/) -->

<svg
   width="50"
   height="50"
   viewBox="0 0 13.229167 13.229167"
   version="1.1"
   id="svg5"
   xmlns="http://www.w3.org/2000/svg"
   xmlns:svg="http://www.w3.org/2000/svg">
  <defs
     id="defs2" />
  <g
     id="layer1">
    <g
       aria-label="3"
       id="text1287"
       style="font-size:15.7088px;line-height:1.25;stroke-width:0.39272;fill:#f60000;fill-opacity:1">
      <path
         d="m 6.2375721,5.6013662 c -0.5026816,0 -0.8796928,0.3455936 -0.8796928,0.8011488 0,0.4555552 0.314176,0.7226048 0.863984,0.7540224 0.706896,0.031418 0.8796928,0.062835 1.1938688,0.1885056 0.7226048,0.2827584 1.1624512,0.78544 1.1624512,1.3195392 0,0.3298848 -0.1727968,0.6911872 -0.4241376,0.8954016 -0.4084288,0.3613024 -0.9739456,0.5026812 -2.042144,0.5026812 -1.0053632,0 -1.4609184,-0.078544 -1.8379296,-0.3298844 C 4.0069224,9.5756926 3.9283784,9.544275 3.724164,9.544275 c -0.4869728,0 -0.8482752,0.3613024 -0.8482752,0.816858 0,0.801148 1.3038305,1.319539 3.2831393,1.319539 1.3823744,0 2.2149408,-0.204215 2.9218369,-0.722605 0.7383136,-0.534099 1.193869,-1.3980832 1.193869,-2.2934848 0,-0.942528 -0.5812258,-1.727968 -1.6965507,-2.2620672 C 9.5207114,5.852707 9.9291402,5.2557725 9.9291402,4.4546237 9.9291402,3.7948541 9.630673,3.1350845 9.1279914,2.6481117 8.5153481,2.0668861 7.6984905,1.7684189 6.6302921,1.7684189 c -1.7436768,0 -3.2988481,0.8168576 -3.2988481,1.727968 0,0.4555552 0.3770112,0.8168576 0.8325665,0.8168576 0.235632,0 0.4555552,-0.094253 0.5969344,-0.2513408 0.5026816,-0.5183904 0.9111104,-0.6754784 1.7593856,-0.6754784 1.0524896,0 1.7122592,0.4084288 1.7122592,1.0681984 0,0.6126432 -0.628352,1.1467425 -1.3666656,1.1467425 z"
         style="font-weight:bold;font-family:'Nimbus Mono PS';-inkscape-font-specification:'Nimbus Mono PS, Bold';fill:#f60000;fill-opacity:1"
         id="path3787" />
    </g>
  </g>
</svg>
