<?xml version="1.0" encoding="UTF-8" standalone="no"?>
<!-- Created with Inkscape (http://www.inkscape.org/) -->

<svg
   width="50"
   height="50"
   viewBox="0 0 13.229167 13.229167"
   version="1.1"
   id="svg5"
   xmlns="http://www.w3.org/2000/svg"
   xmlns:svg="http://www.w3.org/2000/svg">
  <defs
     id="defs2" />
  <g
     id="layer1">
    <g
       aria-label="4"
       id="text1287"
       style="font-size:15.7088px;line-height:1.25;stroke-width:0.39272;fill:#00007b;fill-opacity:1">
      <path
         d="M 8.9866121,2.0197597 H 6.8345065 L 3.017268,8.0676478 V 9.387187 H 7.2900617 V 9.8427422 H 6.7559625 c -0.39272,0 -0.5340992,0.031418 -0.6911872,0.1099616 -0.2513408,0.1570882 -0.4084288,0.4241372 -0.4084288,0.6911872 0,0.534099 0.3770112,0.816858 1.099616,0.816858 h 2.0735616 c 0.7383137,0 1.1153249,-0.282759 1.1153249,-0.816858 0,-0.251341 -0.1256704,-0.502682 -0.3455936,-0.6440608 C 9.4421674,9.8898686 9.3322058,9.858451 8.9866121,9.8427422 V 9.387187 C 9.5992554,9.3714782 9.944849,9.073011 9.944849,8.5703294 9.944849,8.3189886 9.8191786,8.0676478 9.5992554,7.9105598 9.4421674,7.816307 9.3322058,7.7848894 8.9866121,7.7691806 Z M 7.2900617,7.7691806 H 5.1222473 L 7.2900617,4.4074973 Z"
         style="font-weight:bold;font-family:'Nimbus Mono PS';-inkscape-font-specification:'Nimbus Mono PS, Bold';fill:#00007b;fill-opacity:1"
         id="path2021" />
    </g>
  </g>
</svg>
