<?xml version="1.0" encoding="UTF-8" standalone="no"?>
<!-- Created with Inkscape (http://www.inkscape.org/) -->

<svg
   width="50"
   height="50"
   viewBox="0 0 13.229167 13.229167"
   version="1.1"
   id="svg5"
   xmlns="http://www.w3.org/2000/svg"
   xmlns:svg="http://www.w3.org/2000/svg">
  <defs
     id="defs2" />
  <g
     id="layer1">
    <g
       aria-label="5"
       id="text1287"
       style="font-size:15.7088px;line-height:1.25;stroke-width:0.39272;fill:#7b0000;fill-opacity:1">
      <path
         d="m 5.4050057,3.6377661 h 3.1103424 c 0.3455936,0 0.5655169,-0.031418 0.6911873,-0.1099616 0.2513408,-0.157088 0.4084288,-0.4241376 0.4084288,-0.706896 0,-0.2670496 -0.1256704,-0.5026816 -0.3455936,-0.6597696 C 9.0965738,2.0511773 8.9394857,2.0197597 8.5153481,2.0197597 H 3.7084552 v 4.3199201 c 0,0.5183904 0.3613025,0.8954016 0.8482753,0.8954016 0.1727968,0 0.235632,-0.015709 0.4555552,-0.1256704 0.6440608,-0.314176 1.3666656,-0.5183904 1.8536384,-0.5183904 1.0367808,0 1.7122592,0.706896 1.7122592,1.7750944 0,1.1624512 -0.7226048,1.69655 -2.3091936,1.69655 -1.0367808,0 -1.4766272,-0.1099612 -1.9478912,-0.4712636 C 4.0854665,9.387187 3.959796,9.3400606 3.724164,9.3400606 c -0.4555552,0 -0.8482752,0.3613024 -0.8482752,0.8011484 0,0.879693 1.4452097,1.539463 3.3931009,1.539463 1.5080448,0 2.4191552,-0.298467 3.1260513,-1.036781 0.5655168,-0.596934 0.879693,-1.3980832 0.879693,-2.277776 0,-1.9636 -1.4295011,-3.3931009 -3.3773923,-3.3931009 -0.4555552,0 -0.942528,0.078544 -1.492336,0.235632 z"
         style="font-weight:bold;font-family:'Nimbus Mono PS';-inkscape-font-specification:'Nimbus Mono PS, Bold';fill:#7b0000;fill-opacity:1"
         id="path1085" />
    </g>
  </g>
</svg>
