<?xml version="1.0" encoding="UTF-8" standalone="no"?>
<!-- Created with Inkscape (http://www.inkscape.org/) -->

<svg
   width="50"
   height="50"
   viewBox="0 0 13.229167 13.229167"
   version="1.1"
   id="svg5"
   xmlns="http://www.w3.org/2000/svg"
   xmlns:svg="http://www.w3.org/2000/svg">
  <defs
     id="defs2" />
  <g
     id="layer1">
    <g
       aria-label="6"
       id="text1287"
       style="font-size:15.7088px;line-height:1.25;stroke-width:0.39272;fill:#007b7b;fill-opacity:1">
      <path
         d="m 5.2636265,6.3396798 c 0.4241376,-1.6965505 1.8222208,-2.9061281 3.377392,-2.9061281 0.1413792,0 0.2042144,0.015709 0.3770112,0.078544 0.2670497,0.094253 0.4241377,0.1256704 0.5655169,0.1256704 0.4712644,0 0.8639844,-0.3770112 0.8639844,-0.8325664 0,-0.628352 -0.7540228,-1.0367808 -1.9007653,-1.0367808 -1.4609184,0 -2.7804576,0.6440608 -3.8329472,1.885056 C 3.8969608,4.6117117 3.488532,5.774163 3.488532,7.109411 c 0,1.099616 0.2827584,2.2934848 0.7068961,3.01609 0.5969344,1.03678 1.57088,1.555171 2.906128,1.555171 1.0681984,0 1.8536384,-0.282759 2.4348641,-0.895402 0.5340988,-0.581225 0.8325668,-1.3509566 0.8325668,-2.2306494 0,-1.727968 -1.3666661,-3.1260512 -3.0632165,-3.1260512 -0.7540224,0 -1.3509568,0.2670496 -2.042144,0.9111104 z M 5.3892969,8.287571 c 0.4084288,-0.7226048 1.17816,-1.2409952 1.8379296,-1.2409952 0.8011488,0 1.4452096,0.6597696 1.4452096,1.492336 0,0.942528 -0.5812256,1.5237532 -1.5237536,1.5237532 -0.9896544,0 -1.5394624,-0.5498076 -1.7593856,-1.775094 z"
         style="font-weight:bold;font-family:'Nimbus Mono PS';-inkscape-font-specification:'Nimbus Mono PS, Bold';fill:#007b7b;fill-opacity:1"
         id="path1871" />
    </g>
  </g>
</svg>
