<?xml version="1.0" encoding="UTF-8" standalone="no"?>
<!-- Created with Inkscape (http://www.inkscape.org/) -->

<svg
   width="50"
   height="50"
   viewBox="0 0 13.229167 13.229167"
   version="1.1"
   id="svg5"
   xmlns="http://www.w3.org/2000/svg"
   xmlns:svg="http://www.w3.org/2000/svg">
  <defs
     id="defs2" />
  <g
     id="layer1">
    <g
       aria-label="8"
       id="text1287"
       style="font-size:15.7088px;line-height:1.25;stroke-width:0.39272;fill:#7b7b7b;fill-opacity:1">
      <path
         d="M 8.6096009,6.6224382 C 9.4892938,6.0569214 9.944849,5.3500253 9.944849,4.5802941 c 0,-1.57088 -1.4609185,-2.8118752 -3.3302657,-2.8118752 -1.8693472,0 -3.3302657,1.2409952 -3.3302657,2.8118752 0,0.78544 0.4555552,1.4609185 1.3352481,2.0421441 C 3.64562,7.2036638 3.1429384,8.0048126 3.1429384,8.9316318 c 0,1.6337152 1.3980833,2.7490402 3.4559361,2.7490402 2.0735616,0 3.4873535,-1.115325 3.4873535,-2.7490402 0,-0.9268192 -0.5026814,-1.727968 -1.4766271,-2.3091936 z M 6.6145833,3.3864253 c 0.9582368,0 1.6337152,0.5026816 1.6337152,1.2252864 0,0.7697313 -0.6597696,1.2724129 -1.6337152,1.2724129 -0.9582368,0 -1.6337152,-0.5183905 -1.6337152,-1.2567041 0,-0.7383136 0.6597696,-1.2409952 1.6337152,-1.2409952 z m 0,4.1314145 c 0.9739456,0 1.7750944,0.5655168 1.7750944,1.2724128 0,0.7540224 -0.7226048,1.2724124 -1.7750944,1.2724124 -1.0367808,0 -1.7750944,-0.51839 -1.7750944,-1.2567036 0,-0.7226048 0.8011488,-1.2881216 1.7750944,-1.2881216 z"
         style="font-weight:bold;font-family:'Nimbus Mono PS';-inkscape-font-specification:'Nimbus Mono PS, Bold';fill:#7b7b7b;fill-opacity:1"
         id="path1541" />
    </g>
  </g>
</svg>
