<?xml version="1.0" encoding="UTF-8" standalone="no"?>
<!-- Created with Inkscape (http://www.inkscape.org/) -->

<svg
   width="50"
   height="50"
   viewBox="0 0 13.229166 13.229167"
   version="1.1"
   id="svg5"
   xmlns="http://www.w3.org/2000/svg"
   xmlns:svg="http://www.w3.org/2000/svg">
  <defs
     id="defs2" />
  <g
     id="layer1">
    <g
       id="g4155"
       transform="matrix(0.11181051,0,0,0.11181051,6.1395095,6.7742561)">
      <rect
         style="fill:#4d4d4d;stroke-width:0.264583"
         id="rect212"
         width="8.8483648"
         height="84.76992"
         x="-13.634924"
         y="-43.813026"
         ry="4.4241824" />
      <path
         id="rect927"
         style="fill:#dd2e44;fill-opacity:1;stroke-width:0.893529"
         d="m -15.777344,-157.9375 c -5.315354,0.01 -10.395328,3.00374 -12.849609,8.13672 -0.734073,1.53527 -1.170263,3.13182 -1.333985,4.72851 -0.646024,1.66682 -1.003906,3.48048 -1.003906,5.38086 V -0.88867188 c 0,0.31045957 0.01262,0.61821569 0.03125,0.92382813 -0.592324,2.93238675 -0.268645,6.07728345 1.126953,8.99609375 3.414652,7.141542 11.913146,10.143168 19.054688,6.728516 L 139.04883,-55.867188 c 4.11406,-1.967093 6.8505,-5.622444 7.78125,-9.732421 0.0417,-0.08319 0.0866,-0.163696 0.12695,-0.248047 3.41465,-7.141542 0.41303,-15.640036 -6.72851,-19.054688 L -9.5722656,-156.5293 c -2.0085584,-0.96037 -4.1251574,-1.41212 -6.2050784,-1.4082 z"
         transform="scale(0.26458333)" />
    </g>
  </g>
</svg>
