<?xml version="1.0" encoding="UTF-8" standalone="no"?>
<!-- Created with Inkscape (http://www.inkscape.org/) -->

<svg
   width="50"
   height="50"
   viewBox="0 0 50 50"
   version="1.1"
   id="svg5"
   xmlns="http://www.w3.org/2000/svg"
   xmlns:svg="http://www.w3.org/2000/svg">
  <defs
     id="defs2" />
  <g
     id="layer1">
    <g
       id="g67"
       transform="translate(93.146301,-2.5248361)">
      <path
         id="path716"
         style="fill:#000000;stroke-width:0.269777"
         d="m -68.146277,6.6851569 c -0.121321,0 -0.242633,0.033233 -0.433118,0.099587 -0.27849,0.097021 -0.516862,0.2756604 -0.667591,0.500034 -0.222744,0.3316013 -0.234474,0.4420009 -0.234474,2.2203868 v 1.8715743 l -0.641772,0.07114 c -1.283295,0.142705 -3.219207,0.670237 -4.530349,1.234543 -0.217929,0.0938 -0.407143,0.156529 -0.420998,0.139102 -0.01388,-0.01743 -0.384659,-0.655869 -0.824083,-1.418433 -0.439421,-0.762566 -0.918636,-1.5145181 -1.064353,-1.67135 -0.512342,-0.5514134 -1.342296,-0.5413972 -1.906878,0.023179 -0.275265,0.275285 -0.316329,0.387814 -0.312455,0.854117 0.0039,0.486072 0.08927,0.683528 0.899958,2.071272 0.492793,0.843562 0.860506,1.562093 0.817233,1.597055 -0.04327,0.03496 -0.351251,0.268568 -0.684454,0.519005 -0.796548,0.598687 -2.271785,2.087162 -2.834233,2.859526 -0.522209,0.717103 -0.260138,0.765418 -2.281508,-0.423108 -1.135895,-0.66789 -1.31644,-0.742266 -1.808873,-0.743992 -0.50167,-0.0018 -0.576519,0.03022 -0.898903,0.382007 -0.301027,0.328482 -0.351448,0.456233 -0.351448,0.890474 0,0.717222 0.250172,0.965838 1.977483,1.964837 0.804596,0.465343 1.475547,0.856452 1.491147,0.868869 0.01559,0.01248 -0.107916,0.363934 -0.275044,0.781404 -0.395457,0.987835 -0.797982,2.385252 -0.936841,3.252598 -0.176228,1.100774 -0.185756,1.125942 -0.450506,1.192391 -0.364407,0.09145 -0.88891,0.567862 -1.050126,0.953701 -0.179089,0.428621 -0.179089,1.076755 0,1.505375 0.161216,0.38584 0.685719,0.861713 1.050126,0.953175 0.26475,0.06645 0.274278,0.09162 0.450506,1.192391 0.138863,0.867347 0.541384,2.264763 0.936841,3.252598 0.167121,0.417469 0.290646,0.768993 0.275044,0.781403 -0.01559,0.01248 -0.686551,0.403529 -1.491147,0.868872 -1.727311,0.999001 -1.977483,1.24761 -1.977483,1.964836 0,0.434238 0.05042,0.56199 0.351448,0.890473 0.322384,0.351799 0.397233,0.383896 0.898903,0.382009 0.492433,-0.0017 0.672978,-0.07611 1.808873,-0.743995 2.021087,-1.188361 1.759683,-1.139621 2.279928,-0.425214 0.550145,0.755474 2.072417,2.288533 2.857418,2.877967 0.321452,0.24137 0.6203,0.468422 0.664429,0.50425 0.04413,0.03581 -0.324803,0.75435 -0.819867,1.597056 -0.825042,1.404402 -0.900002,1.577728 -0.901539,2.079175 -0.0015,0.501554 0.0303,0.576595 0.382008,0.898904 0.361562,0.331366 0.62083,0.410424 1.156562,0.353029 0.483832,-0.05184 0.767044,-0.37715 1.645531,-1.890543 0.495354,-0.853364 0.909053,-1.563087 0.919453,-1.577035 0.01038,-0.01388 0.514736,0.161556 1.120732,0.389913 1.321917,0.498145 2.372012,0.772734 3.580861,0.93684 l 0.898376,0.122247 5.27e-4,1.855765 c 3.49e-4,1.679555 0.01969,1.888287 0.207074,2.195625 0.113876,0.186768 0.356561,0.404373 0.539026,0.483698 0.42816,0.186119 0.716858,0.187054 1.154455,0.0042 0.683826,-0.28572 0.76838,-0.58281 0.768757,-2.701982 l 5.27e-4,-1.874208 h 0.24343 c 0.837618,0 3.191729,-0.586413 4.572502,-1.139174 0.41747,-0.16712 0.768816,-0.291163 0.780875,-0.27557 0.01206,0.01559 0.427261,0.726303 0.922617,1.579667 0.976437,1.682141 1.213047,1.917197 1.921103,1.907403 0.485368,-0.0067 0.839409,-0.217247 1.121258,-0.66601 0.334801,-0.533073 0.220411,-0.985305 -0.610685,-2.413235 -1.179788,-2.027032 -1.131615,-1.758216 -0.409407,-2.284142 0.797078,-0.580447 2.37603,-2.159402 2.956475,-2.956475 0.526536,-0.723048 0.263733,-0.771057 2.285724,0.417835 1.135897,0.66788 1.316439,0.742106 1.808873,0.743995 0.501671,0.0018 0.576518,-0.03023 0.898904,-0.382009 0.301032,-0.328483 0.351446,-0.456235 0.351446,-0.890473 0,-0.717226 -0.25017,-0.965835 -1.97748,-1.964836 -0.804599,-0.465343 -1.475557,-0.856462 -1.49115,-0.868872 -0.01559,-0.01248 0.10793,-0.363934 0.275044,-0.781403 0.395456,-0.987835 0.797983,-2.385251 0.936843,-3.252598 0.176232,-1.100771 0.185757,-1.125941 0.450505,-1.192391 0.364406,-0.09145 0.888911,-0.567337 1.050127,-0.953175 0.179088,-0.42862 0.179088,-1.076754 0,-1.505375 -0.161216,-0.385839 -0.685721,-0.86224 -1.050127,-0.953701 -0.264748,-0.06645 -0.274273,-0.09162 -0.450505,-1.192391 -0.138864,-0.867346 -0.541387,-2.264763 -0.936843,-3.252598 -0.16712,-0.41747 -0.290637,-0.768983 -0.275044,-0.781404 0.01559,-0.01248 0.686551,-0.403528 1.49115,-0.868869 1.72731,-0.999001 1.97748,-1.247614 1.97748,-1.964837 0,-0.434241 -0.05041,-0.561992 -0.351446,-0.890474 -0.322386,-0.351778 -0.397233,-0.383843 -0.898904,-0.382007 -0.492434,0.0017 -0.672976,0.07611 -1.808873,0.743992 -2.021991,1.188891 -1.759188,1.140885 -2.285724,0.417838 -0.580445,-0.797078 -2.159397,-2.37603 -2.956475,-2.956476 -0.723047,-0.526537 -0.771055,-0.263732 0.417837,-2.285724 0.663211,-1.127944 0.742375,-1.319222 0.743993,-1.799388 0.0017,-0.464697 -0.04128,-0.57978 -0.315617,-0.8541171 -0.564581,-0.5645846 -1.39401,-0.5746021 -1.906352,-0.023179 -0.145716,0.156832 -0.624928,0.9087841 -1.064352,1.6713501 -0.439422,0.762564 -0.810216,1.401009 -0.824083,1.418433 -0.01388,0.01743 -0.203597,-0.04531 -0.421525,-0.139102 -1.31114,-0.564306 -3.246525,-1.091836 -4.52982,-1.234543 l -0.641774,-0.07114 V 9.5051577 c 0,-1.7783859 -0.01178,-1.8887855 -0.234473,-2.2203868 -0.15073,-0.2243736 -0.389102,-0.4030201 -0.667592,-0.500034 -0.190486,-0.066354 -0.311792,-0.099587 -0.433118,-0.099587 z" />
      <circle
         style="fill:#ffffff;stroke-width:0.26123"
         id="path983"
         cx="-73.532112"
         cy="19.903448"
         r="3.2233584" />
    </g>
  </g>
</svg>
